<svg width="252" height="64" viewBox="0 0 252 64" fill="none" xmlns="http://www.w3.org/2000/svg">
<path d="M233.971 31.9188C237.999 31.9188 240.955 31.6914 242.839 31.2366C244.724 30.7169 245.666 29.515 245.666 27.6309C245.666 26.5914 245.438 25.5519 244.983 24.5124C244.529 23.4729 243.879 22.5308 243.034 21.6862C242.255 20.8417 241.313 20.1595 240.208 19.6397C239.104 19.12 237.934 18.8601 236.7 18.8601C235.141 18.8601 233.646 19.2499 232.217 20.0295C230.788 20.8092 229.521 21.7837 228.416 22.9531C227.377 24.1226 226.532 25.4219 225.883 26.8512C225.233 28.2806 224.908 29.6774 224.908 31.0417C224.908 31.2366 225.006 31.4315 225.2 31.6264C225.395 31.8213 225.655 31.9188 225.98 31.9188H233.971ZM249.076 34.2577H225.883C225.038 34.2577 224.518 34.55 224.323 35.1347C224.128 35.6545 224.031 36.7265 224.031 38.3507C224.031 41.5991 224.388 44.4902 225.103 47.024C225.883 49.5578 226.922 51.7017 228.221 53.4559C229.586 55.21 231.178 56.5744 232.997 57.5489C234.881 58.4585 236.927 58.9132 239.136 58.9132C241.15 58.9132 242.839 58.5884 244.204 57.9387C245.633 57.289 246.803 56.5744 247.712 55.7948C248.622 55.0151 249.336 54.3005 249.856 53.6508C250.376 53.0011 250.733 52.6763 250.928 52.6763C251.383 52.6763 251.61 52.9361 251.61 53.4559C251.61 54.1705 251.253 55.1126 250.538 56.282C249.824 57.3865 248.784 58.491 247.42 59.5954C246.12 60.6349 244.496 61.5445 242.547 62.3241C240.663 63.1037 238.551 63.4935 236.213 63.4935C233.549 63.4935 231.08 62.9413 228.806 61.8368C226.597 60.7324 224.681 59.1731 223.056 57.1591C221.432 55.1451 220.165 52.7088 219.256 49.8501C218.411 46.9915 217.989 43.8081 217.989 40.2998C217.989 36.7265 218.509 33.5105 219.548 30.6519C220.588 27.7283 221.985 25.2595 223.739 23.2455C225.493 21.2315 227.539 19.7047 229.878 18.6652C232.217 17.5607 234.686 17.0085 237.285 17.0085C239.559 17.0085 241.605 17.4308 243.424 18.2754C245.243 19.12 246.77 20.2569 248.004 21.6862C249.304 23.0506 250.278 24.6748 250.928 26.5589C251.643 28.378 252 30.2621 252 32.2112C252 32.9258 251.773 33.4456 251.318 33.7704C250.928 34.0952 250.181 34.2577 249.076 34.2577Z" fill="white"/>
<path d="M206.167 17.0085C208.181 17.0085 209.74 17.1384 210.844 17.3983C212.014 17.5932 212.858 17.9181 213.378 18.3728C213.963 18.7627 214.32 19.2499 214.45 19.8346C214.58 20.3544 214.645 20.9391 214.645 21.5888V25.5844C214.645 26.8837 214.353 27.5334 213.768 27.5334C213.183 27.5334 212.858 27.1436 212.793 26.364C212.728 25.5194 212.274 24.3824 211.429 22.9531C210.584 21.5238 209.545 20.4518 208.311 19.7372C207.076 19.0225 205.777 18.6652 204.412 18.6652C202.528 18.6652 200.937 19.3474 199.637 20.7117C198.338 22.0111 197.688 23.7328 197.688 25.8767C197.688 28.1506 198.338 29.9373 199.637 31.2366C200.937 32.471 202.886 33.7379 205.484 35.0373C207.174 35.8819 208.7 36.694 210.065 37.4736C211.429 38.2532 212.599 39.1303 213.573 40.1048C214.548 41.0794 215.295 42.2488 215.814 43.6132C216.399 44.9125 216.692 46.5692 216.692 48.5832C216.692 53.196 215.425 56.8343 212.891 59.498C210.357 62.1617 206.784 63.4935 202.171 63.4935C200.872 63.4935 199.572 63.3636 198.273 63.1037C197.039 62.8439 195.902 62.454 194.862 61.9343C193.888 61.4795 193.075 60.9598 192.426 60.375C191.776 59.7254 191.451 59.0107 191.451 58.2311C191.451 57.7113 191.484 56.7693 191.549 55.4049C191.614 53.9756 191.646 52.124 191.646 49.8501C191.646 48.7457 192.003 48.1934 192.718 48.1934C193.303 48.1934 193.66 48.7132 193.79 49.7527C193.985 50.7272 194.375 52.3514 194.96 54.6253C195.609 56.9642 196.486 58.7508 197.591 59.9852C198.76 61.1547 200.547 61.7394 202.951 61.7394C205.679 61.7394 207.856 60.8623 209.48 59.1082C211.169 57.289 212.014 54.9177 212.014 51.9941C212.014 49.3954 211.299 47.3813 209.87 45.952C208.441 44.4577 206.264 43.0284 203.34 41.6641C199.767 39.9749 197.103 38.2532 195.349 36.4991C193.66 34.7449 192.816 32.4385 192.816 29.5799C192.816 25.8767 193.985 22.8557 196.324 20.5168C198.663 18.1779 201.944 17.0085 206.167 17.0085Z" fill="white"/>
<path d="M162.586 21.8812V44.2953C162.586 49.3629 163.236 53.1635 164.535 55.6973C165.835 58.2311 168.173 59.498 171.552 59.498C175.06 59.498 177.594 58.1011 179.153 55.3075C180.712 52.4489 181.492 48.1934 181.492 42.5412V24.8047C181.492 23.5054 181.232 22.5958 180.712 22.0761C180.193 21.5563 179.608 21.199 178.958 21.0041C178.309 20.8092 177.724 20.6792 177.204 20.6143C176.684 20.5493 176.424 20.2569 176.424 19.7372C176.424 19.2824 176.489 19.0225 176.619 18.9576C176.814 18.8276 177.074 18.7627 177.399 18.7627C177.659 18.7627 178.081 18.7951 178.666 18.8601C179.251 18.9251 180.03 18.9576 181.005 18.9576C182.109 18.9576 183.051 18.9251 183.831 18.8601C184.61 18.7951 185.163 18.7627 185.488 18.7627C186.202 18.7627 186.624 18.9576 186.754 19.3474C186.884 19.6722 186.949 20.5168 186.949 21.8812V53.9432C186.949 55.3075 187.144 56.2171 187.534 56.6718C187.924 57.1266 188.346 57.3865 188.801 57.4515C189.321 57.5164 189.775 57.5489 190.165 57.5489C190.62 57.5489 190.847 57.7763 190.847 58.2311C190.847 58.7508 190.49 59.1731 189.775 59.498C189.061 59.7579 188.216 60.1477 187.242 60.6674C186.072 61.3171 185.13 61.9343 184.416 62.519C183.701 63.1687 183.084 63.4935 182.564 63.4935C182.174 63.4935 181.914 63.2662 181.784 62.8114C181.719 62.4216 181.687 61.8693 181.687 61.1547V56.5744C181.687 55.7948 181.589 55.405 181.395 55.405C181.135 55.405 180.745 55.8922 180.225 56.8668C179.705 57.7763 178.796 58.7833 177.496 59.8878C176.197 61.0572 174.865 61.9343 173.501 62.519C172.201 63.1687 170.74 63.4935 169.115 63.4935C166.907 63.4935 164.892 62.9413 163.073 61.8368C161.319 60.7324 159.987 59.2056 159.078 57.2566C158.168 55.5024 157.616 53.6833 157.421 51.7992C157.226 49.9151 157.129 47.9336 157.129 45.8546V24.8047C157.129 23.5054 156.869 22.5958 156.349 22.0761C155.829 21.5563 155.245 21.199 154.595 21.0041C153.945 20.8092 153.361 20.6792 152.841 20.6143C152.321 20.5493 152.061 20.2569 152.061 19.7372C152.061 19.2824 152.126 19.0225 152.256 18.9576C152.451 18.8276 152.711 18.7627 153.036 18.7627C153.166 18.7627 153.588 18.7951 154.303 18.8601C155.082 18.9251 156.154 18.9576 157.519 18.9576C158.233 18.9576 158.85 18.9251 159.37 18.8601C159.955 18.7951 160.507 18.7627 161.027 18.7627C161.742 18.7627 162.164 18.9251 162.294 19.2499C162.489 19.5748 162.586 20.4518 162.586 21.8812Z" fill="white"/>
<path d="M97.6171 0.246582H107.167C107.622 0.246582 107.98 0.279068 108.239 0.344039C108.564 0.409007 108.792 0.701366 108.922 1.22112L123.442 45.6596C123.637 46.1794 123.864 46.4393 124.124 46.4393C124.384 46.4393 124.612 46.1469 124.806 45.5622L138.937 2.00073C139.067 1.48099 139.229 1.05869 139.424 0.73385C139.619 0.409004 139.977 0.246582 140.496 0.246582H150.339C151.314 0.246582 151.801 0.701362 151.801 1.61092C151.801 2.13067 151.638 2.488 151.314 2.68291C151.054 2.81284 150.696 2.9103 150.242 2.97526C149.852 2.97526 149.365 3.00775 148.78 3.07272C148.195 3.07272 147.61 3.20266 147.026 3.46253C146.311 3.78738 145.856 4.24216 145.661 4.82687C145.466 5.34662 145.369 6.35363 145.369 7.84791V9.89442L146.636 52.4813C146.636 53.3909 146.636 54.1705 146.636 54.8202C146.701 55.4049 146.766 55.9247 146.831 56.3795C146.961 56.7693 147.156 57.0941 147.416 57.354C147.675 57.6139 148.065 57.8737 148.585 58.1336C149.17 58.3935 149.754 58.5559 150.339 58.6209C150.924 58.6209 151.411 58.6534 151.801 58.7183C152.256 58.7833 152.613 58.9132 152.873 59.1081C153.133 59.303 153.263 59.6929 153.263 60.2776C153.263 61.1871 152.613 61.6419 151.314 61.6419C150.599 61.6419 149.592 61.5769 148.293 61.447C146.993 61.2521 145.401 61.1546 143.517 61.1546C141.568 61.1546 139.977 61.2521 138.742 61.447C137.508 61.5769 136.533 61.6419 135.819 61.6419C134.454 61.6419 133.772 61.1222 133.772 60.0827C133.772 59.5629 133.935 59.2381 134.259 59.1081C134.584 58.9132 134.974 58.7833 135.429 58.7183C135.949 58.6534 136.501 58.5884 137.086 58.5234C137.735 58.4584 138.385 58.2311 139.035 57.8413C139.684 57.5164 140.074 56.9967 140.204 56.282C140.399 55.5024 140.496 54.268 140.496 52.5788V50.2399L139.522 11.5511C139.522 10.6416 139.457 10.1868 139.327 10.1868C139.067 10.1868 138.872 10.4142 138.742 10.8689L122.857 58.9132C122.662 59.433 122.435 59.6929 122.175 59.6929C121.915 59.6929 121.688 59.433 121.493 58.9132L105.706 10.5766C105.576 10.3167 105.348 10.1868 105.024 10.1868C104.829 10.1868 104.731 10.6416 104.731 11.5511L103.269 43.1259C103.204 44.2303 103.139 45.3673 103.074 46.5367C103.074 47.6412 103.074 48.7456 103.074 49.8501C103.074 52.9036 103.237 55.1775 103.562 56.6718C103.952 58.1011 104.959 58.8158 106.583 58.8158C106.908 58.8158 107.2 58.8158 107.46 58.8158C107.785 58.7508 108.11 58.7183 108.434 58.7183C109.279 58.7183 109.701 59.2381 109.701 60.2776C109.701 61.2521 108.922 61.7394 107.362 61.7394C106.453 61.7394 105.543 61.6744 104.634 61.5445C103.724 61.4145 102.815 61.3496 101.905 61.3496C100.736 61.3496 99.6636 61.4145 98.6891 61.5445C97.7795 61.6744 96.9349 61.7394 96.1553 61.7394C94.661 61.7394 93.9139 61.1871 93.9139 60.0827C93.9139 59.1731 94.4661 58.7183 95.5706 58.7183C95.8305 58.7183 96.0254 58.7508 96.1553 58.8158C96.3502 58.8158 96.5451 58.8158 96.74 58.8158C97.5196 58.8158 98.1368 58.5559 98.5916 58.0362C99.1114 57.4514 99.5012 56.5419 99.7611 55.3075C100.086 54.0731 100.313 52.4813 100.443 50.5323C100.638 48.5183 100.801 46.0494 100.93 43.1259L102.685 8.23772V7.16574C102.685 5.08675 101.97 3.81986 100.541 3.36508C99.956 3.17017 99.3712 3.07272 98.7865 3.07272C98.2668 3.00775 97.812 2.97526 97.4222 2.97526C97.0324 2.9103 96.7075 2.81284 96.4477 2.68291C96.2527 2.488 96.1553 2.13067 96.1553 1.61092C96.1553 0.701362 96.6426 0.246582 97.6171 0.246582Z" fill="white"/>
<path d="M52.8585 28.4964C57.5939 28.4964 61.4326 32.3352 61.4326 37.0705V63.3682H55.8053V42.6973C55.8053 37.962 51.9665 34.1232 47.2312 34.1232H36.167C31.4316 34.1232 27.5929 37.962 27.5929 42.6973V63.3682H21.9661V37.0705C21.9661 32.3352 25.8048 28.4964 30.5402 28.4964H52.8585Z" fill="white"/>
<path d="M54.9702 14.8419C63.054 14.8419 67.0959 14.8419 69.6072 17.3532C72.1186 19.8645 72.1186 23.9064 72.1186 31.9902V63.3683H66.4918V37.617C66.4918 29.5332 66.4918 25.4913 63.9804 22.98C61.4691 20.4687 57.4272 20.4687 49.3434 20.4687H34.055C25.9712 20.4687 21.9293 20.4687 19.418 22.98C16.9067 25.4913 16.9067 29.5332 16.9067 37.617V63.3683H11.2799V31.9902C11.2799 23.9064 11.2799 19.8645 13.7912 17.3532C16.3025 14.8419 20.3444 14.8419 28.4282 14.8419H54.9702Z" fill="white"/>
<path d="M74.8245 0C79.5599 0 83.3987 3.83878 83.3987 8.57416V63.3684H77.7714V14.201C77.7714 9.46558 73.9326 5.62679 69.1972 5.62679H14.201C9.46558 5.62679 5.62679 9.46558 5.62679 14.201V63.3684H0V8.57416C0 3.83878 3.83878 0 8.57416 0H74.8245Z" fill="white"/>
</svg>
